<?xml version="1.0" encoding="UTF-8"?>
<svg xmlns="http://www.w3.org/2000/svg" version="1.1" width="300" height="300" viewBox="0 0 300 300"><rect x="0" y="0" width="300" height="300" fill="#ffffff"/><g transform="scale(10.345)"><g transform="translate(0,0)"><path fill-rule="evenodd" d="M9 0L9 1L8 1L8 2L9 2L9 3L8 3L8 4L10 4L10 7L11 7L11 4L12 4L12 5L13 5L13 6L12 6L12 9L13 9L13 8L14 8L14 9L15 9L15 10L17 10L17 11L16 11L16 12L17 12L17 13L18 13L18 14L17 14L17 15L16 15L16 13L12 13L12 11L13 11L13 10L11 10L11 11L10 11L10 9L11 9L11 8L6 8L6 9L5 9L5 8L0 8L0 9L3 9L3 10L2 10L2 11L3 11L3 12L4 12L4 10L6 10L6 11L8 11L8 12L6 12L6 13L7 13L7 14L5 14L5 13L2 13L2 14L3 14L3 16L2 16L2 15L1 15L1 13L0 13L0 21L1 21L1 17L3 17L3 16L4 16L4 14L5 14L5 17L4 17L4 18L2 18L2 19L3 19L3 20L2 20L2 21L3 21L3 20L4 20L4 21L8 21L8 23L10 23L10 24L11 24L11 23L10 23L10 22L9 22L9 21L8 21L8 20L6 20L6 19L7 19L7 18L8 18L8 17L10 17L10 18L9 18L9 20L10 20L10 21L12 21L12 22L13 22L13 23L12 23L12 25L13 25L13 24L14 24L14 25L16 25L16 26L15 26L15 27L14 27L14 28L15 28L15 27L16 27L16 28L17 28L17 29L20 29L20 28L23 28L23 29L27 29L27 28L28 28L28 26L29 26L29 25L28 25L28 24L26 24L26 25L25 25L25 23L27 23L27 22L29 22L29 20L28 20L28 19L27 19L27 16L28 16L28 15L27 15L27 14L25 14L25 13L27 13L27 12L28 12L28 11L27 11L27 12L26 12L26 11L25 11L25 9L26 9L26 8L25 8L25 9L24 9L24 8L23 8L23 9L22 9L22 8L21 8L21 9L20 9L20 8L19 8L19 6L18 6L18 8L17 8L17 9L16 9L16 7L17 7L17 5L21 5L21 4L20 4L20 3L21 3L21 2L19 2L19 4L18 4L18 3L17 3L17 2L18 2L18 1L21 1L21 0L15 0L15 1L17 1L17 2L16 2L16 4L12 4L12 2L13 2L13 1L11 1L11 2L10 2L10 0ZM14 2L14 3L15 3L15 2ZM10 3L10 4L11 4L11 3ZM16 4L16 5L17 5L17 4ZM8 5L8 7L9 7L9 5ZM13 6L13 7L14 7L14 8L15 8L15 7L16 7L16 6L15 6L15 7L14 7L14 6ZM20 6L20 7L21 7L21 6ZM18 8L18 9L19 9L19 8ZM27 8L27 9L28 9L28 10L29 10L29 9L28 9L28 8ZM6 9L6 10L8 10L8 11L9 11L9 10L8 10L8 9ZM21 9L21 10L22 10L22 12L21 12L21 11L20 11L20 10L18 10L18 11L17 11L17 12L18 12L18 13L25 13L25 12L24 12L24 11L23 11L23 10L22 10L22 9ZM0 11L0 12L1 12L1 11ZM14 11L14 12L15 12L15 11ZM19 11L19 12L20 12L20 11ZM8 12L8 14L7 14L7 15L6 15L6 16L9 16L9 15L10 15L10 17L11 17L11 18L10 18L10 20L11 20L11 18L13 18L13 19L12 19L12 21L15 21L15 22L16 22L16 23L17 23L17 24L16 24L16 25L17 25L17 26L16 26L16 27L17 27L17 28L20 28L20 27L22 27L22 26L23 26L23 25L22 25L22 26L21 26L21 25L20 25L20 24L19 24L19 22L18 22L18 21L20 21L20 19L22 19L22 18L19 18L19 19L18 19L18 18L17 18L17 20L16 20L16 21L15 21L15 20L14 20L14 19L15 19L15 18L16 18L16 17L14 17L14 16L16 16L16 15L14 15L14 16L13 16L13 17L12 17L12 15L13 15L13 14L12 14L12 13L11 13L11 12L10 12L10 13L9 13L9 12ZM10 13L10 15L11 15L11 13ZM28 13L28 14L29 14L29 13ZM18 14L18 15L17 15L17 16L18 16L18 17L21 17L21 16L22 16L22 17L25 17L25 21L26 21L26 20L27 20L27 19L26 19L26 17L25 17L25 16L27 16L27 15L25 15L25 14L23 14L23 15L21 15L21 16L20 16L20 14ZM23 15L23 16L24 16L24 15ZM6 17L6 18L7 18L7 17ZM28 17L28 18L29 18L29 17ZM4 18L4 20L5 20L5 18ZM23 18L23 20L24 20L24 18ZM17 20L17 21L16 21L16 22L17 22L17 21L18 21L18 20ZM21 21L21 24L24 24L24 21ZM22 22L22 23L23 23L23 22ZM14 23L14 24L15 24L15 23ZM8 24L8 29L9 29L9 28L10 28L10 29L12 29L12 27L13 27L13 26L11 26L11 25L10 25L10 27L9 27L9 24ZM17 24L17 25L18 25L18 24ZM24 25L24 26L25 26L25 25ZM17 26L17 27L20 27L20 26ZM10 27L10 28L11 28L11 27ZM23 27L23 28L25 28L25 27ZM26 27L26 28L27 28L27 27ZM0 0L0 7L7 7L7 0ZM1 1L1 6L6 6L6 1ZM2 2L2 5L5 5L5 2ZM22 0L22 7L29 7L29 0ZM23 1L23 6L28 6L28 1ZM24 2L24 5L27 5L27 2ZM0 22L0 29L7 29L7 22ZM1 23L1 28L6 28L6 23ZM2 24L2 27L5 27L5 24Z" fill="#000000"/></g></g></svg>
